<svg width="24" height="24" viewBox="0 0 24 24" fill="none" xmlns="http://www.w3.org/2000/svg">
<mask id="mask0_590_2198" style="mask-type:alpha" maskUnits="userSpaceOnUse" x="0" y="0" width="24" height="24">
<rect width="24" height="24" fill="#D9D9D9"/>
</mask>
<g mask="url(#mask0_590_2198)">
<path d="M17 15.6345C16.359 15.6345 15.8142 15.4102 15.3655 14.9615C14.9167 14.5128 14.6923 13.968 14.6923 13.327C14.6923 12.686 14.9167 12.1411 15.3655 11.6923C15.8142 11.2436 16.359 11.0193 17 11.0193C17.641 11.0193 18.1858 11.2436 18.6345 11.6923C19.0833 12.1411 19.3077 12.686 19.3077 13.327C19.3077 13.968 19.0833 14.5128 18.6345 14.9615C18.1858 15.4102 17.641 15.6345 17 15.6345ZM17 14.6345C17.3603 14.6345 17.6683 14.5067 17.924 14.251C18.1798 13.9952 18.3077 13.6872 18.3077 13.327C18.3077 12.9667 18.1798 12.6587 17.924 12.403C17.6683 12.1472 17.3603 12.0192 17 12.0192C16.6397 12.0192 16.3317 12.1472 16.076 12.403C15.8202 12.6587 15.6923 12.9667 15.6923 13.327C15.6923 13.6872 15.8202 13.9952 16.076 14.251C16.3317 14.5067 16.6397 14.6345 17 14.6345ZM11.6923 21.5385V19.3307C11.6923 19.1017 11.7469 18.8863 11.8563 18.6845C11.9656 18.4828 12.1187 18.322 12.3155 18.202C12.7785 17.9243 13.2668 17.6941 13.7803 17.5113C14.2939 17.3286 14.8184 17.1934 15.3538 17.1058L17 19.25L18.627 17.1058C19.1685 17.1934 19.6954 17.3286 20.2078 17.5113C20.7201 17.6941 21.2104 17.9243 21.6788 18.202C21.8763 18.3212 22.0273 18.4804 22.1318 18.6798C22.2362 18.8791 22.2949 19.0897 22.3078 19.3115V21.5385H11.6923ZM12.6673 20.5385H16.723L14.9693 18.2345C14.5628 18.3302 14.1675 18.4544 13.7835 18.6072C13.3997 18.7601 13.0276 18.9372 12.6673 19.1385V20.5385ZM17.277 20.5385H21.3078V19.1385C20.9513 18.9333 20.5811 18.7587 20.1973 18.6145C19.8133 18.4702 19.418 18.3499 19.0115 18.2538L17.277 20.5385ZM5.6245 20C5.171 20 4.78683 19.8418 4.472 19.5255C4.15733 19.2092 4 18.8288 4 18.3845V5.6155C4 5.17117 4.15817 4.79083 4.4745 4.4745C4.79083 4.15817 5.17117 4 5.6155 4H18.3845C18.8288 4 19.2092 4.15817 19.5255 4.4745C19.8418 4.79083 20 5.17117 20 5.6155V9.30775C19.8487 9.16675 19.6948 9.03917 19.5385 8.925C19.382 8.81083 19.2025 8.723 19 8.6615V5.6155C19 5.436 18.9423 5.2885 18.827 5.173C18.7115 5.05767 18.564 5 18.3845 5H5.6155C5.436 5 5.2885 5.05767 5.173 5.173C5.05767 5.2885 5 5.436 5 5.6155V18.3845C5 18.564 5.05767 18.7115 5.173 18.827C5.2885 18.9423 5.436 19 5.6155 19H8.95775C8.94625 19.0552 8.93758 19.1103 8.93175 19.1655C8.92592 19.2205 8.923 19.2756 8.923 19.3307V20H5.6245ZM7.5 8.73075H14.923C15.164 8.58975 15.4178 8.48717 15.6845 8.423C15.9512 8.359 16.223 8.31417 16.5 8.2885V7.73075H7.5V8.73075ZM7.5 12.5H12.0192C12.0449 12.3167 12.0792 12.1448 12.122 11.9845C12.165 11.8243 12.2148 11.6628 12.2713 11.5H7.5V12.5ZM7.5 16.2692H10.2963C10.4668 16.1321 10.6433 16.0019 10.826 15.8787C11.0087 15.7557 11.1955 15.6507 11.3865 15.5635V15.2692H7.5V16.2692ZM5 19V5V8.65575V8.25V19Z" fill="#616D6A"/>
</g>
</svg>
