<svg xmlns="http://www.w3.org/2000/svg" height="1em" viewBox="0 -960 960 960" width="1em">
<path d="M120-80v-600q0-24.75 17.625-42.375T180-740h270q24.75 0 42.375 17.625T510-680v120h330q24.75 0 42.375 17.625T900-500v420H120Zm60-60h270v-120H180v120Zm0-180h270v-120H180v120Zm0-180h270v-120H180v120Zm0-180h270v-120H180v120Zm330 540h330v-420H510v420Zm75-300q-8.5 0-14.25-5.75T565-460q0-8.5 5.75-14.25T585-480h150q8.5 0 14.25 5.75T755-460q0 8.5-5.75 14.25T735-440H585Zm0 160q-8.5 0-14.25-5.75T565-300q0-8.5 5.75-14.25T585-320h150q8.5 0 14.25 5.75T755-300q0 8.5-5.75 14.25T735-280H585Z" fill="#AFB8B6"/>
</svg>