<svg
  xmlns="http://www.w3.org/2000/svg"
  height="1em"
  width="1em"
  viewBox="0 0 24 24"
>
  <path
    d="M3.76921 20.1538C3.47555 20.1538 3.22905 20.0541 3.02971 19.8548C2.83038 19.6554 2.73071 19.409 2.73071 19.1155V4.19225C2.73071 3.89875 2.83038 3.65233 3.02971 3.453C3.22905 3.2535 3.47555 3.15375 3.76921 3.15375H10.6922C10.9859 3.15375 11.2324 3.2535 11.4317 3.453C11.631 3.65233 11.7307 3.89875 11.7307 4.19225V7.15375H20.2307C20.5244 7.15375 20.7709 7.2535 20.9702 7.453C21.1695 7.65233 21.2692 7.89875 21.2692 8.19225V19.1155C21.2692 19.409 21.1695 19.6554 20.9702 19.8548C20.7709 20.0541 20.5244 20.1538 20.2307 20.1538H3.76921ZM3.73071 19.1538H10.7307V16.1538H3.73071V19.1538ZM3.73071 15.1538H10.7307V12.1538H3.73071V15.1538ZM3.73071 11.1538H10.7307V8.15375H3.73071V11.1538ZM3.73071 7.15375H10.7307V4.15375H3.73071V7.15375ZM11.7307 19.1538H20.2692V8.15375H11.7307V19.1538ZM14.6155 12.1538C14.4738 12.1538 14.355 12.1058 14.2592 12.01C14.1634 11.914 14.1155 11.7951 14.1155 11.6533C14.1155 11.5114 14.1634 11.3927 14.2592 11.297C14.355 11.2015 14.4738 11.1538 14.6155 11.1538H17C17.1416 11.1538 17.2604 11.2018 17.3562 11.2978C17.452 11.3938 17.5 11.5127 17.5 11.6545C17.5 11.7963 17.452 11.915 17.3562 12.0105C17.2604 12.106 17.1416 12.1538 17 12.1538H14.6155ZM14.6155 16.1538C14.4738 16.1538 14.355 16.1058 14.2592 16.01C14.1634 15.914 14.1155 15.7951 14.1155 15.6533C14.1155 15.5114 14.1634 15.3927 14.2592 15.297C14.355 15.2015 14.4738 15.1538 14.6155 15.1538H17C17.1416 15.1538 17.2604 15.2018 17.3562 15.2978C17.452 15.3938 17.5 15.5127 17.5 15.6545C17.5 15.7963 17.452 15.915 17.3562 16.0105C17.2604 16.106 17.1416 16.1538 17 16.1538H14.6155Z"
  />
</svg>
